<svg width="134" height="35" viewBox="0 0 134 35" fill="none" xmlns="http://www.w3.org/2000/svg">
<path d="M26 19.9255H17.1294V29H8.87059V19.9255H0V12.1255H8.87059V3H17.1294V12.1255H26V19.9255Z" fill="#36BD80"/>
<g filter="url(#filter0_ddddd_7_22)">
<path d="M8.80646 3H13V29H8.80646V3Z" fill="#20935F"/>
</g>
<mask id="mask0_7_22" style="mask-type:alpha" maskUnits="userSpaceOnUse" x="0" y="3" width="13" height="26">
<rect y="3" width="13" height="26" fill="#C4C4C4"/>
</mask>
<g mask="url(#mask0_7_22)">
<path d="M26 19.9255H17.1294V29H8.87059V19.9255H0V12.1255H8.87059V3H17.1294V12.1255H26V19.9255Z" fill="#20935F"/>
</g>
<path d="M45.901 22.159V26H43.946C40.6493 26 39.001 24.367 39.001 21.101V16.846H37.414V13.097H39.001V9.969H43.532V13.097H45.878V16.846H43.532V21.17C43.532 21.5227 43.6087 21.7757 43.762 21.929C43.9307 22.0823 44.2067 22.159 44.59 22.159H45.901ZM58.7557 12.982C60.2277 12.982 61.393 13.4803 62.2517 14.477C63.1257 15.4583 63.5627 16.7923 63.5627 18.479V26H59.0547V19.077C59.0547 18.341 58.863 17.766 58.4797 17.352C58.0963 16.9227 57.5827 16.708 56.9387 16.708C56.264 16.708 55.735 16.9227 55.3517 17.352C54.9683 17.766 54.7767 18.341 54.7767 19.077V26H50.2687V8.98H54.7767V14.937C55.1753 14.3543 55.712 13.8867 56.3867 13.534C57.0767 13.166 57.8663 12.982 58.7557 12.982ZM67.6002 19.537C67.6002 18.203 67.8379 17.0377 68.3132 16.041C68.8039 15.0443 69.4632 14.2777 70.2912 13.741C71.1346 13.2043 72.0699 12.936 73.0972 12.936C73.9866 12.936 74.7532 13.1123 75.3972 13.465C76.0412 13.8177 76.5396 14.293 76.8922 14.891V13.097H81.4002V26H76.8922V24.206C76.5396 24.804 76.0336 25.2793 75.3742 25.632C74.7302 25.9847 73.9712 26.161 73.0972 26.161C72.0699 26.161 71.1346 25.8927 70.2912 25.356C69.4632 24.8193 68.8039 24.0527 68.3132 23.056C67.8379 22.044 67.6002 20.871 67.6002 19.537ZM76.8922 19.537C76.8922 18.709 76.6622 18.0573 76.2022 17.582C75.7576 17.1067 75.2056 16.869 74.5462 16.869C73.8716 16.869 73.3119 17.1067 72.8672 17.582C72.4226 18.042 72.2002 18.6937 72.2002 19.537C72.2002 20.365 72.4226 21.0243 72.8672 21.515C73.3119 21.9903 73.8716 22.228 74.5462 22.228C75.2056 22.228 75.7576 21.9903 76.2022 21.515C76.6622 21.0397 76.8922 20.3803 76.8922 19.537ZM94.7101 12.982C96.1974 12.982 97.3781 13.4803 98.2521 14.477C99.1261 15.4583 99.5631 16.7923 99.5631 18.479V26H95.0551V19.077C95.0551 18.341 94.8634 17.766 94.4801 17.352C94.0967 16.9227 93.5831 16.708 92.9391 16.708C92.2644 16.708 91.7354 16.9227 91.3521 17.352C90.9687 17.766 90.7771 18.341 90.7771 19.077V26H86.2691V13.097H90.7771V14.937C91.1757 14.3543 91.7124 13.8867 92.3871 13.534C93.0617 13.166 93.8361 12.982 94.7101 12.982ZM112.41 26L108.845 20.71V26H104.337V8.98H108.845V18.157L112.41 13.097H117.815L112.732 19.583L117.907 26H112.41ZM127.025 26.161C125.86 26.161 124.817 25.9693 123.897 25.586C122.993 25.1873 122.272 24.6507 121.735 23.976C121.214 23.286 120.923 22.5117 120.861 21.653H125.231C125.293 22.067 125.484 22.389 125.806 22.619C126.128 22.849 126.527 22.964 127.002 22.964C127.37 22.964 127.662 22.8873 127.876 22.734C128.091 22.5807 128.198 22.3813 128.198 22.136C128.198 21.814 128.022 21.5763 127.669 21.423C127.317 21.2697 126.734 21.101 125.921 20.917C125.001 20.733 124.235 20.526 123.621 20.296C123.008 20.066 122.471 19.6903 122.011 19.169C121.567 18.6477 121.344 17.9423 121.344 17.053C121.344 16.2863 121.551 15.5963 121.965 14.983C122.379 14.3543 122.985 13.856 123.782 13.488C124.595 13.12 125.569 12.936 126.703 12.936C128.39 12.936 129.716 13.35 130.682 14.178C131.648 15.006 132.208 16.0947 132.361 17.444H128.29C128.214 17.03 128.03 16.7157 127.738 16.501C127.462 16.271 127.087 16.156 126.611 16.156C126.243 16.156 125.96 16.225 125.76 16.363C125.576 16.501 125.484 16.6927 125.484 16.938C125.484 17.2447 125.661 17.4823 126.013 17.651C126.366 17.8043 126.933 17.9653 127.715 18.134C128.651 18.3333 129.425 18.5557 130.038 18.801C130.667 19.0463 131.211 19.445 131.671 19.997C132.147 20.5337 132.384 21.2697 132.384 22.205C132.384 22.9563 132.162 23.631 131.717 24.229C131.288 24.827 130.667 25.3023 129.854 25.655C129.057 25.9923 128.114 26.161 127.025 26.161Z" fill="#1F1F1F"/>
<defs>
<filter id="filter0_ddddd_7_22" x="7.80646" y="0" width="12.1935" height="30" filterUnits="userSpaceOnUse" color-interpolation-filters="sRGB">
<feFlood flood-opacity="0" result="BackgroundImageFix"/>
<feColorMatrix in="SourceAlpha" type="matrix" values="0 0 0 0 0 0 0 0 0 0 0 0 0 0 0 0 0 0 127 0" result="hardAlpha"/>
<feOffset/>
<feColorMatrix type="matrix" values="0 0 0 0 0 0 0 0 0 0 0 0 0 0 0 0 0 0 0.1 0"/>
<feBlend mode="normal" in2="BackgroundImageFix" result="effect1_dropShadow_7_22"/>
<feColorMatrix in="SourceAlpha" type="matrix" values="0 0 0 0 0 0 0 0 0 0 0 0 0 0 0 0 0 0 127 0" result="hardAlpha"/>
<feOffset/>
<feGaussianBlur stdDeviation="0.5"/>
<feColorMatrix type="matrix" values="0 0 0 0 0 0 0 0 0 0 0 0 0 0 0 0 0 0 0.1 0"/>
<feBlend mode="normal" in2="effect1_dropShadow_7_22" result="effect2_dropShadow_7_22"/>
<feColorMatrix in="SourceAlpha" type="matrix" values="0 0 0 0 0 0 0 0 0 0 0 0 0 0 0 0 0 0 127 0" result="hardAlpha"/>
<feOffset dx="1"/>
<feGaussianBlur stdDeviation="0.5"/>
<feColorMatrix type="matrix" values="0 0 0 0 0 0 0 0 0 0 0 0 0 0 0 0 0 0 0.09 0"/>
<feBlend mode="normal" in2="effect2_dropShadow_7_22" result="effect3_dropShadow_7_22"/>
<feColorMatrix in="SourceAlpha" type="matrix" values="0 0 0 0 0 0 0 0 0 0 0 0 0 0 0 0 0 0 127 0" result="hardAlpha"/>
<feOffset dx="3" dy="-1"/>
<feGaussianBlur stdDeviation="1"/>
<feColorMatrix type="matrix" values="0 0 0 0 0 0 0 0 0 0 0 0 0 0 0 0 0 0 0.05 0"/>
<feBlend mode="normal" in2="effect3_dropShadow_7_22" result="effect4_dropShadow_7_22"/>
<feColorMatrix in="SourceAlpha" type="matrix" values="0 0 0 0 0 0 0 0 0 0 0 0 0 0 0 0 0 0 127 0" result="hardAlpha"/>
<feOffset dx="5" dy="-1"/>
<feGaussianBlur stdDeviation="1"/>
<feColorMatrix type="matrix" values="0 0 0 0 0 0 0 0 0 0 0 0 0 0 0 0 0 0 0.01 0"/>
<feBlend mode="normal" in2="effect4_dropShadow_7_22" result="effect5_dropShadow_7_22"/>
<feBlend mode="normal" in="SourceGraphic" in2="effect5_dropShadow_7_22" result="shape"/>
</filter>
</defs>
</svg>
